<?xml version="1.0" encoding="utf-8"?>
<!-- Generator: Adobe Illustrator 14.0.0, SVG Export Plug-In . SVG Version: 6.00 Build 43363)  -->
<!DOCTYPE svg PUBLIC "-//W3C//DTD SVG 1.1//EN" "http://www.w3.org/Graphics/SVG/1.1/DTD/svg11.dtd">
<svg version="1.1" id="Layer_1" xmlns="http://www.w3.org/2000/svg" xmlns:xlink="http://www.w3.org/1999/xlink" x="0px" y="0px"
	 width="79.37px" height="102.05px" viewBox="0 0 79.37 102.05" enable-background="new 0 0 79.37 102.05" xml:space="preserve">
<g>
	
		<linearGradient id="SVGID_1_" gradientUnits="userSpaceOnUse" x1="18.7412" y1="27.2368" x2="60.9687" y2="69.4643" gradientTransform="matrix(0.9974 -0.0727 0.0727 0.9974 -1.474 2.1711)">
		<stop  offset="0" style="stop-color:#FFFFFF"/>
		<stop  offset="0" style="stop-color:#87C1BE"/>
		<stop  offset="1" style="stop-color:#008DBD"/>
	</linearGradient>
	<path fill="url(#SVGID_1_)" d="M59.877,66.862c6.608-0.482,11.577-6.232,11.096-12.841l-2.128-29.18l-45.137,3.29
		c-6.61,0.481-11.578,6.231-11.096,12.84l2.127,29.182L59.877,66.862z"/>
	<path opacity="0.45" fill="#FFFFFF" d="M14.611,42.24c-0.472-6.472,4.394-12.102,10.865-12.574l43.225-3.15l-0.09-1.228
		l-45.122,3.289c-6.471,0.472-11.336,6.101-10.865,12.573l2.083,28.573l1.897-0.139L14.611,42.24z"/>
	
		<linearGradient id="SVGID_2_" gradientUnits="userSpaceOnUse" x1="15.7734" y1="73.1416" x2="66.5362" y2="22.3789" gradientTransform="matrix(0.9879 0.1553 -0.1553 0.9879 8.5541 -6.0756)">
		<stop  offset="0" style="stop-color:#000000"/>
		<stop  offset="0.4909" style="stop-color:#ADACAC"/>
		<stop  offset="1" style="stop-color:#000000"/>
	</linearGradient>
	<path fill="url(#SVGID_2_)" d="M59.913,67.36l-45.637,3.327l-2.164-29.679c-0.501-6.875,4.684-12.875,11.558-13.375l45.637-3.327
		l2.163,29.679C71.973,60.859,66.787,66.859,59.913,67.36L59.913,67.36z M15.2,69.616l44.641-3.253
		c6.323-0.461,11.094-5.982,10.633-12.306l-2.091-28.682L23.744,28.63c-6.325,0.461-11.095,5.981-10.634,12.305L15.2,69.616
		L15.2,69.616z"/>
	<path opacity="0.25" d="M68.761,53.038c0.478,6.552-4.291,12.24-10.649,12.704L14.648,68.91l0.09,1.243l45.328-3.306
		c6.358-0.463,11.126-6.15,10.649-12.703l-2.172-29.783l-1.864,0.136L68.761,53.038z"/>
	<defs>
		<filter id="Adobe_OpacityMaskFilter" filterUnits="userSpaceOnUse" x="12.964" y="37.16" width="58.013" height="32.993">
			<feColorMatrix  type="matrix" values="1 0 0 0 0  0 1 0 0 0  0 0 1 0 0  0 0 0 1 0"/>
		</filter>
	</defs>
	<mask maskUnits="userSpaceOnUse" x="12.964" y="37.16" width="58.013" height="32.993" id="SVGID_3_">
		<g filter="url(#Adobe_OpacityMaskFilter)">
			
				<linearGradient id="SVGID_4_" gradientUnits="userSpaceOnUse" x1="38.6699" y1="62.6064" x2="38.6699" y2="35.6064" gradientTransform="matrix(0.9974 -0.0727 0.0727 0.9974 -1.473 2.1716)">
				<stop  offset="0" style="stop-color:#000000"/>
				<stop  offset="1" style="stop-color:#FFFFFF"/>
			</linearGradient>
			<polygon fill="url(#SVGID_4_)" points="76.554,59.257 6.738,64.346 4.776,37.417 74.591,32.329 			"/>
		</g>
	</mask>
	
		<linearGradient id="SVGID_5_" gradientUnits="userSpaceOnUse" x1="39.856" y1="68.9795" x2="39.856" y2="39.3564" gradientTransform="matrix(0.9974 -0.0727 0.0727 0.9974 -1.473 2.1716)">
		<stop  offset="0" style="stop-color:#000000"/>
		<stop  offset="1" style="stop-color:#FFFFFF"/>
	</linearGradient>
	<path opacity="0.43" mask="url(#SVGID_3_)" fill="url(#SVGID_5_)" d="M70.942,53.606l-0.776-10.655
		c-0.995-3.624-5.539-6.136-10.799-5.753l-36.876,2.688c-4.615,0.336-8.366,2.799-9.527,5.917l1.775,24.349l45.139-3.29
		C66.486,66.38,71.442,60.446,70.942,53.606z"/>
	<g>
		<line fill="#FFFFFF" stroke="#000000" stroke-width="2" stroke-linecap="round" x1="22.32" y1="36.54" x2="59.471" y2="33.832"/>
		
			<line fill="#FFFFFF" stroke="#000000" stroke-width="2" stroke-linecap="round" x1="22.918" y1="44.747" x2="60.068" y2="42.039"/>
		
			<line fill="#FFFFFF" stroke="#000000" stroke-width="2" stroke-linecap="round" x1="23.517" y1="52.954" x2="60.667" y2="50.246"/>
		
			<line fill="#FFFFFF" stroke="#000000" stroke-width="2" stroke-linecap="round" x1="24.114" y1="61.161" x2="61.265" y2="58.453"/>
	</g>
</g>
<path opacity="0.34" d="M57.335,76.426c6.547,1.029,12.689-3.444,13.719-9.991l-0.845-29.75l-39.32-6.182
	c-6.547-1.029-12.689,3.444-13.718,9.991l-2.796,17.787l0.798,11.516L57.335,76.426z"/>
<path d="M7.942,77.677c-0.286-0.045-0.564-0.164-0.803-0.362c-0.71-0.588-0.809-1.64-0.221-2.349
	c0.101-0.123,2.52-3.013,6.556-5.152c4.101-2.173,6.899-2.022,7.205-1.998c0.917,0.066,1.604,0.877,1.53,1.796
	c-0.073,0.919-0.877,1.604-1.795,1.529c-0.001,0.001-2.14-0.095-5.377,1.622c-3.457,1.831-5.528,4.306-5.549,4.33
	C9.098,77.563,8.504,77.766,7.942,77.677L7.942,77.677z"/>
<defs>
	<filter id="Adobe_OpacityMaskFilter_1_" filterUnits="userSpaceOnUse" x="7.25" y="69.021" width="13.126" height="8.447">
		<feColorMatrix  type="matrix" values="1 0 0 0 0  0 1 0 0 0  0 0 1 0 0  0 0 0 1 0"/>
	</filter>
</defs>
<mask maskUnits="userSpaceOnUse" x="7.25" y="69.021" width="13.126" height="8.447" id="SVGID_6_">
	<g filter="url(#Adobe_OpacityMaskFilter_1_)">
		
			<radialGradient id="SVGID_7_" cx="7.9546" cy="76.3174" r="7.032" gradientTransform="matrix(1 0 0 0.9311 0 5.8138)" gradientUnits="userSpaceOnUse">
			<stop  offset="0" style="stop-color:#FFFFFF"/>
			<stop  offset="0.1702" style="stop-color:#D2D2D2"/>
			<stop  offset="0.3969" style="stop-color:#969696"/>
			<stop  offset="0.6015" style="stop-color:#5F5F5F"/>
			<stop  offset="0.7765" style="stop-color:#303030"/>
			<stop  offset="0.9151" style="stop-color:#0B0B0B"/>
			<stop  offset="1" style="stop-color:#000000"/>
		</radialGradient>
		<ellipse fill="url(#SVGID_7_)" cx="7.955" cy="76.875" rx="6.765" ry="6.787"/>
	</g>
</mask>
<linearGradient id="SVGID_8_" gradientUnits="userSpaceOnUse" x1="16.3057" y1="75.3955" x2="18.4948" y2="79.233" gradientTransform="matrix(0.9921 0.1251 -0.1251 0.9921 6.1061 -5.9232)">
	<stop  offset="0" style="stop-color:#000000"/>
	<stop  offset="1" style="stop-color:#FFFFFF"/>
</linearGradient>
<path mask="url(#SVGID_6_)" fill="url(#SVGID_8_)" d="M8.225,77.46c-0.198-0.023-0.386-0.102-0.544-0.226
	c-0.235-0.182-0.385-0.446-0.421-0.741c-0.038-0.297,0.043-0.589,0.226-0.824c0.085-0.109,2.14-2.716,5.63-4.705
	c3.521-2.005,5.936-1.952,6.201-1.939c0.033,0.002,0.063,0.005,0.093,0.008c0.57,0.071,0.993,0.583,0.965,1.162
	c-0.015,0.297-0.144,0.571-0.365,0.771c-0.221,0.201-0.506,0.301-0.804,0.287c-0.236,0-2.183,0.053-4.988,1.651
	c-2.991,1.703-4.774,3.887-4.968,4.129C9.005,77.348,8.614,77.51,8.225,77.46L8.225,77.46z"/>
<g>
	
		<linearGradient id="SVGID_9_" gradientUnits="userSpaceOnUse" x1="24.584" y1="33.7852" x2="66.8122" y2="76.0134" gradientTransform="matrix(0.9879 0.1553 -0.1553 0.9879 8.5541 -6.0756)">
		<stop  offset="0" style="stop-color:#FFFFFF"/>
		<stop  offset="0" style="stop-color:#75B985"/>
		<stop  offset="1" style="stop-color:#95C6C1"/>
	</linearGradient>
	<path fill="url(#SVGID_9_)" d="M58.395,78.216c6.547,1.029,12.689-3.444,13.718-9.991l4.544-28.903l-44.708-7.029
		c-6.547-1.029-12.689,3.444-13.718,9.991l-4.544,28.903L58.395,78.216z"/>
	<path opacity="0.45" fill="#FFFFFF" d="M19.89,43.972c1.008-6.411,7.022-10.791,13.433-9.783l42.813,6.731l0.191-1.216
		l-44.694-7.026c-6.41-1.008-12.424,3.373-13.432,9.783l-4.449,28.301l1.879,0.296L19.89,43.972z"/>
	
		<linearGradient id="SVGID_10_" gradientUnits="userSpaceOnUse" x1="20.5688" y1="80.0273" x2="70.8267" y2="29.7695" gradientTransform="matrix(0.9879 0.1553 -0.1553 0.9879 8.5541 -6.0756)">
		<stop  offset="0" style="stop-color:#000000"/>
		<stop  offset="0.4909" style="stop-color:#ADACAC"/>
		<stop  offset="1" style="stop-color:#000000"/>
	</linearGradient>
	<path fill="url(#SVGID_10_)" d="M58.317,78.709l-45.203-7.106l4.622-29.396c1.071-6.809,7.481-11.478,14.29-10.407l45.203,7.106
		l-4.622,29.397C71.536,75.111,65.126,79.78,58.317,78.709L58.317,78.709z M14.258,70.771l44.215,6.951
		c6.264,0.984,12.161-3.311,13.146-9.574l4.466-28.409l-44.214-6.951c-6.265-0.985-12.162,3.31-13.146,9.574L14.258,70.771
		L14.258,70.771z"/>
	<path opacity="0.25" d="M70.182,66.766c-1.021,6.489-6.954,10.948-13.252,9.958l-43.05-6.768l-0.193,1.23l44.897,7.059
		c6.298,0.99,12.23-3.469,13.251-9.958l4.638-29.5l-1.846-0.29L70.182,66.766z"/>
	<defs>
		<filter id="Adobe_OpacityMaskFilter_2_" filterUnits="userSpaceOnUse" x="13.687" y="43.291" width="60.151" height="35.067">
			<feColorMatrix  type="matrix" values="1 0 0 0 0  0 1 0 0 0  0 0 1 0 0  0 0 0 1 0"/>
		</filter>
	</defs>
	<mask maskUnits="userSpaceOnUse" x="13.687" y="43.291" width="60.151" height="35.067" id="SVGID_11_">
		<g filter="url(#Adobe_OpacityMaskFilter_2_)">
			
				<linearGradient id="SVGID_12_" gradientUnits="userSpaceOnUse" x1="44.5117" y1="69.1553" x2="44.5117" y2="42.1558" gradientTransform="matrix(0.9879 0.1553 -0.1553 0.9879 8.5541 -6.0756)">
				<stop  offset="0" style="stop-color:#000000"/>
				<stop  offset="1" style="stop-color:#FFFFFF"/>
			</linearGradient>
			<polygon fill="url(#SVGID_12_)" points="76.361,74.59 7.21,63.718 11.404,37.046 80.555,47.917 			"/>
		</g>
	</mask>
	
		<linearGradient id="SVGID_13_" gradientUnits="userSpaceOnUse" x1="45.6982" y1="75.5283" x2="45.6982" y2="45.9053" gradientTransform="matrix(0.9879 0.1553 -0.1553 0.9879 8.5541 -6.0756)">
		<stop  offset="0" style="stop-color:#000000"/>
		<stop  offset="1" style="stop-color:#FFFFFF"/>
	</linearGradient>
	<path opacity="0.43" mask="url(#SVGID_11_)" fill="url(#SVGID_13_)" d="M72.179,67.813l1.659-10.554
		c-0.147-3.755-4.005-7.232-9.214-8.051l-36.526-5.743c-4.571-0.719-8.782,0.83-10.62,3.604l-3.792,24.117l44.708,7.029
		C64.942,79.245,71.113,74.588,72.179,67.813z"/>
	<g>
		<line fill="#FFFFFF" stroke="#000000" stroke-width="2" stroke-linecap="round" x1="28.69" y1="40.169" x2="65.487" y2="45.954"/>
		
			<line fill="#FFFFFF" stroke="#000000" stroke-width="2" stroke-linecap="round" x1="27.412" y1="48.297" x2="64.209" y2="54.082"/>
		
			<line fill="#FFFFFF" stroke="#000000" stroke-width="2" stroke-linecap="round" x1="26.134" y1="56.426" x2="62.932" y2="62.211"/>
		<line fill="#FFFFFF" stroke="#000000" stroke-width="2" stroke-linecap="round" x1="24.856" y1="64.555" x2="61.653" y2="70.34"/>
	</g>
</g>
</svg>
