<?xml version="1.0" encoding="utf-8"?>
<!-- Generator: Adobe Illustrator 14.0.0, SVG Export Plug-In . SVG Version: 6.00 Build 43363)  -->
<!DOCTYPE svg PUBLIC "-//W3C//DTD SVG 1.1//EN" "http://www.w3.org/Graphics/SVG/1.1/DTD/svg11.dtd">
<svg version="1.1"
	 id="svg1" sodipodi:version="0.32" sodipodi:docname="XiIrritant.svg" sodipodi:docbase="/mnt/donnees/09-Mes_images/Travaux/Travaux vectoriel/pictogrammes/s?cu SVG/produits chimiques" inkscape:version="0.40" xmlns:dc="http://purl.org/dc/elements/1.1/" xmlns:rdf="http://www.w3.org/1999/02/22-rdf-syntax-ns#" xmlns:sodipodi="http://sodipodi.sourceforge.net/DTD/sodipodi-0.dtd" xmlns:inkscape="http://www.inkscape.org/namespaces/inkscape" xmlns:cc="http://web.resource.org/cc/"
	 xmlns="http://www.w3.org/2000/svg" xmlns:xlink="http://www.w3.org/1999/xlink" x="0px" y="0px" width="155.933px"
	 height="177.523px" viewBox="0 0 155.933 177.523" enable-background="new 0 0 155.933 177.523" xml:space="preserve">
<sodipodi:namedview  id="base" inkscape:current-layer="svg1" inkscape:window-height="1121" inkscape:pageshadow="2" inkscape:pageopacity="0.0" inkscape:window-x="200" inkscape:window-width="1590" inkscape:window-y="0" bordercolor="#666666" borderopacity="1.0" inkscape:cx="62.372805" inkscape:cy="34.864537" pagecolor="#ffffff" inkscape:zoom="6.6399849">
	</sodipodi:namedview>
<g>
	<g>
		
			<linearGradient id="SVGID_3_" gradientUnits="userSpaceOnUse" x1="302.7402" y1="-106.8386" x2="397.6784" y2="-201.7768" gradientTransform="matrix(0.9884 -0.1524 -0.1524 -0.9884 -293.9439 -22.3659)">
			<stop  offset="0" style="stop-color:#FFFFFF"/>
			<stop  offset="0" style="stop-color:#87C1BE"/>
			<stop  offset="1" style="stop-color:#008DBD"/>
		</linearGradient>
		<path fill="url(#SVGID_3_)" d="M119.731,116.904c14.723-2.271,24.823-16.056,22.553-30.779l-10.028-65.01L31.692,36.622
			C16.965,38.892,6.868,52.674,9.139,67.399l10.026,65.016L119.731,116.904z"/>
		<path opacity="0.45" fill="#FFFFFF" enable-background="new    " d="M13.847,69.882c-2.224-14.419,7.667-27.913,22.084-30.139
			l96.303-14.85l-0.425-2.734L31.28,37.663C16.864,39.885,6.975,53.379,9.199,67.798l9.819,63.659l4.224-0.656L13.847,69.882z"/>
		
			<linearGradient id="SVGID_5_" gradientUnits="userSpaceOnUse" x1="29.5278" y1="29.9744" x2="124.5882" y2="125.0346" gradientTransform="matrix(0.9968 -0.0802 0.0802 0.9968 -7.3142 5.6864)">
			<stop  offset="0" style="stop-color:#000000"/>
			<stop  offset="0.4909" style="stop-color:#ADACAC"/>
			<stop  offset="1" style="stop-color:#000000"/>
		</linearGradient>
		<path fill="url(#SVGID_5_)" d="M119.901,118.011L18.225,133.695l-10.2-66.124c-2.362-15.318,8.178-29.7,23.493-32.059
			l101.676-15.68l10.198,66.122C145.758,101.27,135.219,115.65,119.901,118.011L119.901,118.011z M20.104,131.13l99.457-15.338
			c14.089-2.173,23.784-15.406,21.611-29.495l-9.857-63.903L31.863,37.736C17.771,39.909,8.075,53.138,10.248,67.228L20.104,131.13
			L20.104,131.13z"/>
		<path opacity="0.25" enable-background="new    " d="M137.149,84.323c2.249,14.593-7.411,28.202-21.575,30.389l-96.837,14.934
			l0.425,2.771l100.99-15.582c14.166-2.183,23.825-15.788,21.576-30.388l-10.236-66.354l-4.152,0.643L137.149,84.323z"/>
		<defs>
			<filter id="Adobe_OpacityMaskFilter" filterUnits="userSpaceOnUse" x="10.799" y="50.135" width="131.683" height="82.278">
				<feColorMatrix  type="matrix" values="1 0 0 0 0  0 1 0 0 0  0 0 1 0 0  0 0 0 1 0"/>
			</filter>
		</defs>
		<mask maskUnits="userSpaceOnUse" x="10.799" y="50.135" width="131.683" height="82.278" id="SVGID_4_">
			<g filter="url(#Adobe_OpacityMaskFilter)">
				
					<linearGradient id="SVGID_6_" gradientUnits="userSpaceOnUse" x1="347.543" y1="-186.3591" x2="347.543" y2="-125.656" gradientTransform="matrix(0.9884 -0.1524 -0.1524 -0.9884 -293.9429 -22.3659)">
					<stop  offset="0" style="stop-color:#000000"/>
					<stop  offset="1" style="stop-color:#FFFFFF"/>
				</linearGradient>
				<polygon fill="url(#SVGID_6_)" points="155.734,96.854 0.187,120.844 -9.063,60.847 146.481,36.861 				"/>
			</g>
		</mask>
		
			<linearGradient id="SVGID_7_" gradientUnits="userSpaceOnUse" x1="350.21" y1="-200.6853" x2="350.21" y2="-134.0847" gradientTransform="matrix(0.9884 -0.1524 -0.1524 -0.9884 -293.9429 -22.3659)">
			<stop  offset="0" style="stop-color:#000000"/>
			<stop  offset="1" style="stop-color:#FFFFFF"/>
		</linearGradient>
		<path opacity="0.43" mask="url(#SVGID_4_)" fill="url(#SVGID_7_)" enable-background="new    " d="M142.14,85.2l-3.659-23.74
			c-2.883-7.939-13.521-12.752-25.239-10.947L31.084,63.187c-10.283,1.584-18.245,7.78-20.286,14.978l8.366,54.248l100.569-15.509
			C134.456,114.633,144.492,100.439,142.14,85.2z"/>
		<g>
			<line fill="none" stroke="#000000" stroke-width="2" stroke-linecap="round" x1="30.097" y1="55.72" x2="112.868" y2="42.952"/>
			<line fill="none" stroke="#000000" stroke-width="2" stroke-linecap="round" x1="32.917" y1="74.004" x2="115.686" y2="61.237"/>
			<line fill="none" stroke="#000000" stroke-width="2" stroke-linecap="round" x1="35.738" y1="92.291" x2="118.508" y2="79.523"/>
			
				<line fill="none" stroke="#000000" stroke-width="2" stroke-linecap="round" x1="38.554" y1="110.576" x2="121.325" y2="97.806"/>
		</g>
	</g>
	<path opacity="0.34" enable-background="new    " d="M115.758,138.794c14.858,1.127,27.816-10.005,28.945-24.861l-7.257-66.521
		l-89.233-6.766C33.354,39.519,20.397,50.65,19.271,65.507l-3.06,40.367l3.863,25.664L115.758,138.794z"/>
	<path d="M5.289,150.502c-0.649-0.048-1.292-0.265-1.865-0.667c-1.696-1.188-2.107-3.529-0.917-5.224
		c0.203-0.292,5.103-7.208,13.763-12.729c8.8-5.606,15.098-5.771,15.787-5.775c2.067-0.016,3.755,1.677,3.753,3.75
		c0.002,2.071-1.676,3.753-3.747,3.751c-0.002,0.002-4.815,0.173-11.758,4.604c-7.417,4.728-11.614,10.647-11.657,10.705
		C7.859,150.039,6.565,150.6,5.289,150.502L5.289,150.502z"/>
	<defs>
		<filter id="Adobe_OpacityMaskFilter_1_" filterUnits="userSpaceOnUse" x="3.493" y="129.059" width="28.313" height="20.911">
			<feColorMatrix  type="matrix" values="1 0 0 0 0  0 1 0 0 0  0 0 1 0 0  0 0 0 1 0"/>
		</filter>
	</defs>
	<mask maskUnits="userSpaceOnUse" x="3.493" y="129.059" width="28.313" height="20.911" id="SVGID_2_">
		<g filter="url(#Adobe_OpacityMaskFilter_1_)">
			
				<radialGradient id="SVGID_8_" cx="294.4424" cy="-212.47" r="15.8106" gradientTransform="matrix(0.9968 -0.0802 -0.0746 -0.9281 -304.181 -24.8887)" gradientUnits="userSpaceOnUse">
				<stop  offset="0" style="stop-color:#FFFFFF"/>
				<stop  offset="0.1702" style="stop-color:#D2D2D2"/>
				<stop  offset="0.3969" style="stop-color:#969696"/>
				<stop  offset="0.6015" style="stop-color:#5F5F5F"/>
				<stop  offset="0.7765" style="stop-color:#303030"/>
				<stop  offset="0.9151" style="stop-color:#0B0B0B"/>
				<stop  offset="1" style="stop-color:#000000"/>
			</radialGradient>
			<path fill="url(#SVGID_8_)" d="M3.951,133.489c8.374-0.671,15.708,5.593,16.384,13.993c0.676,8.401-5.563,15.755-13.937,16.429
				c-8.373,0.675-15.709-5.589-16.386-13.989C-10.663,141.522-4.422,134.165,3.951,133.489z"/>
		</g>
	</mask>
	
		<linearGradient id="SVGID_9_" gradientUnits="userSpaceOnUse" x1="339.751" y1="-138.8337" x2="344.6725" y2="-147.4611" gradientTransform="matrix(0.9989 0.0452 0.0452 -0.9989 -318.0531 -19.5546)">
		<stop  offset="0" style="stop-color:#000000"/>
		<stop  offset="1" style="stop-color:#FFFFFF"/>
	</linearGradient>
	<path mask="url(#SVGID_2_)" fill="url(#SVGID_9_)" d="M5.885,149.968c-0.449-0.02-0.884-0.162-1.261-0.412
		c-0.56-0.363-0.942-0.929-1.077-1.582c-0.139-0.66-0.009-1.329,0.357-1.887c0.171-0.262,4.308-6.478,11.772-11.561
		c7.527-5.129,12.95-5.444,13.544-5.466c0.075-0.002,0.144,0,0.212,0c1.289,0.06,2.329,1.131,2.372,2.433
		c0.019,0.668-0.22,1.306-0.68,1.795c-0.458,0.49-1.079,0.763-1.749,0.786c-0.529,0.044-4.884,0.514-10.882,4.601
		c-6.396,4.355-9.999,9.569-10.388,10.146C7.613,149.573,6.764,150.008,5.885,149.968L5.885,149.968z"/>
	<g>
		
			<linearGradient id="SVGID_10_" gradientUnits="userSpaceOnUse" x1="365.0957" y1="-33.7854" x2="460.0359" y2="-128.7255" gradientTransform="matrix(0.9972 0.0756 0.0756 -0.9972 -320.5715 -18.6753)">
			<stop  offset="0" style="stop-color:#FFFFFF"/>
			<stop  offset="0" style="stop-color:#75B985"/>
			<stop  offset="1" style="stop-color:#95C6C1"/>
		</linearGradient>
		<path fill="url(#SVGID_10_)" d="M118.455,142.617c14.857,1.125,27.819-10.007,28.942-24.863l4.977-65.594L50.912,44.464
			C36.052,43.34,23.095,54.47,21.968,69.33l-4.974,65.592L118.455,142.617z"/>
		<path opacity="0.45" fill="#FFFFFF" enable-background="new    " d="M25.99,72.813c1.103-14.549,13.793-25.449,28.341-24.347
			l97.162,7.367l0.209-2.757l-101.43-7.69c-14.548-1.105-27.235,9.796-28.338,24.343l-4.87,64.228l4.265,0.325L25.99,72.813z"/>
		
			<linearGradient id="SVGID_11_" gradientUnits="userSpaceOnUse" x1="35.3472" y1="45.6365" x2="133.9693" y2="144.2584" gradientTransform="matrix(0.9968 -0.0802 0.0802 0.9968 -7.3142 5.6864)">
			<stop  offset="0" style="stop-color:#000000"/>
			<stop  offset="0.4909" style="stop-color:#ADACAC"/>
			<stop  offset="1" style="stop-color:#000000"/>
		</linearGradient>
		<path fill="url(#SVGID_11_)" d="M118.368,143.732l-102.583-7.775l5.06-66.713c1.173-15.451,14.697-27.07,30.149-25.897
			l102.585,7.777l-5.061,66.715C147.349,133.288,133.823,144.907,118.368,143.732L118.368,143.732z M18.199,133.887l100.344,7.608
			c14.213,1.075,26.658-9.612,27.737-23.827l4.885-64.473L50.826,45.59c-14.22-1.079-26.66,9.609-27.737,23.824L18.199,133.887
			L18.199,133.887z"/>
		<path opacity="0.25" enable-background="new    " d="M142.809,114.831c-1.117,14.728-13.611,25.79-27.904,24.705l-97.698-7.406
			l-0.212,2.791l101.891,7.727c14.293,1.083,26.783-9.979,27.903-24.707l5.075-66.948l-4.189-0.315L142.809,114.831z"/>
		<defs>
			<filter id="Adobe_OpacityMaskFilter_2_" filterUnits="userSpaceOnUse" x="16.992" y="70.101" width="132.297" height="72.586">
				<feColorMatrix  type="matrix" values="1 0 0 0 0  0 1 0 0 0  0 0 1 0 0  0 0 0 1 0"/>
			</filter>
		</defs>
		<mask maskUnits="userSpaceOnUse" x="16.992" y="70.101" width="132.297" height="72.586" id="SVGID_1_">
			<g filter="url(#Adobe_OpacityMaskFilter_2_)">
				
					<linearGradient id="SVGID_12_" gradientUnits="userSpaceOnUse" x1="409.8994" y1="-113.3093" x2="409.8994" y2="-52.6067" gradientTransform="matrix(0.9972 0.0756 0.0756 -0.9972 -320.5715 -18.6753)">
					<stop  offset="0" style="stop-color:#000000"/>
					<stop  offset="1" style="stop-color:#FFFFFF"/>
				</linearGradient>
				<polygon fill="url(#SVGID_12_)" points="158.066,131.249 1.134,119.352 5.723,58.822 162.658,70.719 				"/>
			</g>
		</mask>
		
			<linearGradient id="SVGID_13_" gradientUnits="userSpaceOnUse" x1="412.5654" y1="-127.6335" x2="412.5654" y2="-61.032" gradientTransform="matrix(0.9972 0.0756 0.0756 -0.9972 -320.5715 -18.6753)">
			<stop  offset="0" style="stop-color:#000000"/>
			<stop  offset="1" style="stop-color:#FFFFFF"/>
		</linearGradient>
		<path opacity="0.43" mask="url(#SVGID_1_)" fill="url(#SVGID_13_)" enable-background="new    " d="M147.474,116.817l1.815-23.951
			c-1.008-8.39-10.28-15.487-22.101-16.381l-82.896-6.289c-10.374-0.788-19.531,3.443-23.15,9.992l-4.151,54.733l101.461,7.69
			C133.313,143.742,146.304,132.191,147.474,116.817z"/>
		<g>
			<line fill="none" stroke="#000000" stroke-width="2" stroke-linecap="round" x1="45.026" y1="62.704" x2="128.534" y2="69.037"/>
			<line fill="none" stroke="#000000" stroke-width="2" stroke-linecap="round" x1="43.628" y1="81.148" x2="127.137" y2="87.481"/>
			
				<line fill="none" stroke="#000000" stroke-width="2" stroke-linecap="round" x1="42.229" y1="99.596" x2="125.739" y2="105.928"/>
			
				<line fill="none" stroke="#000000" stroke-width="2" stroke-linecap="round" x1="40.829" y1="118.046" x2="124.336" y2="124.378"/>
		</g>
	</g>
</g>
</svg>
